<mxfile host="app.diagrams.net" modified="2024-01-11T14:35:34.847Z" agent="Mozilla/5.0 (Windows NT 10.0; Win64; x64) AppleWebKit/537.36 (KHTML, like Gecko) Chrome/120.0.0.0 Safari/537.36" etag="cTFBONwIOl0EBnRboGla" version="22.1.18" type="github">
  <diagram id="C5RBs43oDa-KdzZeNtuy" name="Page-1">
    <mxGraphModel dx="1434" dy="780" grid="1" gridSize="10" guides="1" tooltips="1" connect="1" arrows="1" fold="1" page="1" pageScale="1" pageWidth="827" pageHeight="1169" math="0" shadow="0">
      <root>
        <mxCell id="WIyWlLk6GJQsqaUBKTNV-0" />
        <mxCell id="WIyWlLk6GJQsqaUBKTNV-1" parent="WIyWlLk6GJQsqaUBKTNV-0" />
        <mxCell id="0_vBa3am8zh0sJsnh3wL-2" value="START" style="strokeWidth=2;html=1;shape=mxgraph.flowchart.start_2;whiteSpace=wrap;" vertex="1" parent="WIyWlLk6GJQsqaUBKTNV-1">
          <mxGeometry x="260" y="60" width="110" height="80" as="geometry" />
        </mxCell>
        <mxCell id="0_vBa3am8zh0sJsnh3wL-28" value="" style="edgeStyle=orthogonalEdgeStyle;rounded=0;orthogonalLoop=1;jettySize=auto;html=1;" edge="1" parent="WIyWlLk6GJQsqaUBKTNV-1" source="0_vBa3am8zh0sJsnh3wL-25" target="0_vBa3am8zh0sJsnh3wL-27">
          <mxGeometry relative="1" as="geometry" />
        </mxCell>
        <mxCell id="0_vBa3am8zh0sJsnh3wL-25" value="Display either A or B" style="shape=display;whiteSpace=wrap;html=1;" vertex="1" parent="WIyWlLk6GJQsqaUBKTNV-1">
          <mxGeometry x="252.5" y="170" width="125" height="50" as="geometry" />
        </mxCell>
        <mxCell id="0_vBa3am8zh0sJsnh3wL-26" style="edgeStyle=orthogonalEdgeStyle;rounded=0;orthogonalLoop=1;jettySize=auto;html=1;entryX=0.5;entryY=1;entryDx=0;entryDy=0;entryPerimeter=0;" edge="1" parent="WIyWlLk6GJQsqaUBKTNV-1" source="0_vBa3am8zh0sJsnh3wL-25" target="0_vBa3am8zh0sJsnh3wL-2">
          <mxGeometry relative="1" as="geometry" />
        </mxCell>
        <mxCell id="0_vBa3am8zh0sJsnh3wL-27" value="CORRECT" style="rhombus;whiteSpace=wrap;html=1;" vertex="1" parent="WIyWlLk6GJQsqaUBKTNV-1">
          <mxGeometry x="180" y="260" width="80" height="80" as="geometry" />
        </mxCell>
        <mxCell id="0_vBa3am8zh0sJsnh3wL-30" style="edgeStyle=orthogonalEdgeStyle;rounded=0;orthogonalLoop=1;jettySize=auto;html=1;entryX=0;entryY=0.5;entryDx=0;entryDy=0;entryPerimeter=0;" edge="1" parent="WIyWlLk6GJQsqaUBKTNV-1" source="0_vBa3am8zh0sJsnh3wL-27" target="0_vBa3am8zh0sJsnh3wL-2">
          <mxGeometry relative="1" as="geometry" />
        </mxCell>
      </root>
    </mxGraphModel>
  </diagram>
</mxfile>
